<?xml version="1.0" encoding="utf-8"?>
<!-- Generator: Adobe Illustrator 24.2.0, SVG Export Plug-In . SVG Version: 6.00 Build 0)  -->
<svg version="1.1" id="Layer_1" xmlns="http://www.w3.org/2000/svg" xmlns:xlink="http://www.w3.org/1999/xlink" x="0px" y="0px"
	 viewBox="0 0 595 842" style="enable-background:new 0 0 595 842;" xml:space="preserve">
<style type="text/css">
	.st0{fill-rule:evenodd;clip-rule:evenodd;fill:#D2AB67;stroke:#000000;}
	.st1{fill-rule:evenodd;clip-rule:evenodd;fill:#ED1C24;stroke:#000000;stroke-width:3;}
	.st2{fill-rule:evenodd;clip-rule:evenodd;fill:#2E3192;stroke:#000000;stroke-width:3;}
	.st3{fill-rule:evenodd;clip-rule:evenodd;fill:#FFFFFF;stroke:#000000;stroke-width:3;}
</style>
<path class="st0" d="M294.3,187.2h-0.2C280.2,317.6,178.3,435.4,83,522.7c-2.1-31.3-12.6-59.7-27.7-82.6
	c17.1,13.4,29.5,35.1,40,55.9c128-118.8,186.8-249.8,198.7-390c12.8,153,87.2,286.6,198.5,390c10.5-20.9,23-42.6,40-55.9
	c-15.1,22.9-25.6,51.3-27.6,82.6C409.6,435.4,308.2,317.6,294.3,187.2z"/>
<g>
	<path class="st1" d="M250.7,606.1l37.7-37.7c2.9-3,8-2.7,11.2,0.5l36.6,36.6c3.2,3.2,3.5,8.3,0.5,11.2L299,654.4
		c-3,3-8,2.7-11.2-0.5l-36.6-36.6C248,614.1,247.8,608.9,250.7,606.1z"/>
	<path class="st2" d="M250.7,504.8l37.7-37.7c2.9-3,8-2.7,11.2,0.5l36.6,36.6c3.2,3.2,3.5,8.3,0.5,11.2L299,553.1
		c-3,3-8,2.7-11.2-0.5L251.2,516C248,512.7,247.8,507.7,250.7,504.8z"/>
	<path class="st1" d="M250.7,403.7l37.7-37.7c2.9-3,8-2.7,11.2,0.5l36.6,36.6c3.2,3.2,3.5,8.3,0.5,11.2L299,452
		c-3,2.9-8,2.7-11.2-0.6L251.2,415C248,411.7,247.8,406.7,250.7,403.7z"/>
	<path class="st3" d="M199.9,555.5l37.7-37.7c3-3,8-2.7,11.2,0.5l36.6,36.6c3.2,3.2,3.5,8.3,0.5,11.2l-37.7,37.7
		c-3,3-8,2.7-11.2-0.5l-36.6-36.6C197.2,563.5,196.9,558.5,199.9,555.5z"/>
	<path class="st3" d="M199.7,454.3l37.7-37.6c3-3,8-2.7,11.2,0.5l36.6,36.6c3.2,3.2,3.5,8.3,0.5,11.2l-37.7,37.7
		c-3,3-8,2.7-11.2-0.5l-36.6-36.6C197.1,462.2,196.8,457.2,199.7,454.3z"/>
	<path class="st3" d="M301.4,555.5l37.6-37.7c3-3,8-2.7,11.2,0.5l36.6,36.6c3.2,3.2,3.5,8.3,0.5,11.2l-37.7,37.7
		c-3,3-8,2.7-11.2-0.5L302,566.7C298.8,563.5,298.5,558.5,301.4,555.5z"/>
	<path class="st3" d="M301.6,454.1l37.6-37.6c3-3,8-2.7,11.2,0.5l36.6,36.6c3.2,3.2,3.5,8.3,0.5,11.2l-37.7,37.7
		c-3,3-8,2.7-11.2-0.5l-36.5-36.6C298.9,462.1,298.7,457,301.6,454.1z"/>
	<path class="st2" d="M352.2,504.8l37.7-37.7c3-3,8-2.7,11.2,0.5l36.6,36.6c3.2,3.2,3.5,8.3,0.5,11.2l-37.7,37.7
		c-3,3-8,2.7-11.2-0.5L352.7,516C349.4,512.7,349.2,507.7,352.2,504.8z"/>
	<path class="st2" d="M149.1,504.9l37.7-37.7c2.9-3,8-2.7,11.2,0.5l36.6,36.6c3.2,3.2,3.5,8.3,0.5,11.2l-37.7,37.7
		c-3,3-8,2.7-11.2-0.5l-36.6-36.6C146.4,512.9,146.2,507.9,149.1,504.9z"/>
</g>
</svg>
